<?xml version="1.0" encoding="utf-8"?>
<!-- Generator: Adobe Illustrator 24.0.1, SVG Export Plug-In . SVG Version: 6.00 Build 0)  -->
<svg version="1.1" id="Layer_1" xmlns="http://www.w3.org/2000/svg" xmlns:xlink="http://www.w3.org/1999/xlink" x="0px" y="0px"
	 viewBox="0 0 222 68" style="enable-background:new 0 0 222 68;" xml:space="preserve">
<style type="text/css">
	.st0{fill:#242223;}
	.st1{fill:#F58735;}
	.st2{fill:#15A95A;}
	.st3{fill:#F2832E;}
	.st4{fill:#DCD2C8;}
	.st5{fill:#F6A96E;}
	.st6{fill:#C9D5CD;}
	.st7{fill:#6BB983;}
	.st8{fill:#706E6F;}
	.st9{fill:#474547;}
	.st10{fill:#8A8989;}
	.st11{fill:#FEFEFE;}
	.st12{font-family:'CenturyGothic-Bold';}
	.st13{font-size:18.0313px;}
	.st14{font-family:'CenturyGothic';}
	.st15{font-size:9.0157px;}
</style>
<g>
	<path class="st0" d="M6.3,54.4c0-0.1-0.1-0.2-0.2-0.2c0-0.2,0-0.2-0.2-0.2c-0.3-0.5-0.6-1.1-0.9-1.6c-0.2-0.6-0.7-0.7-1.1-0.8
		c-0.2-0.2-0.5-0.4-0.7-0.7c-1.1-2.1-0.9-4.3-0.7-6.6c0.7-1.7,1.8-2.8,3.4-3.4c0.3,0,0.5-0.1,0.6-0.4c0.3-0.1,0.6-0.2,0.8-0.3
		c1.5-0.4,3.2,0,4.6-1.1c0.2,0,0.4,0,0.6,0.1c0.5,0.2,1.1,0.1,1.6,0c0.4,0,0.8,0,1.1-0.1c0.6,0.1,1.3,0.5,1.7-0.3
		c0.1,0,0.2-0.1,0.4-0.1c0.7-0.1,1.5,0.3,2-0.6c0.8-0.3,1.5-0.6,2.3-0.8c0.3,0.1,0.5,0.1,0.7-0.1c0.2,0,0.3-0.1,0.5-0.1
		c0.3,0.1,0.5,0.1,0.7-0.3c1.6-0.2,3.2-0.2,4.8,0c0.2,0.3,0.3,0.4,0.6,0.1c0.6,0.1,1.2,0.1,1.8,0.2c2.2,0.6,4.5,0.1,6.8,0.2
		c0.4,0,0.6-0.3,0.7-0.7c0.2,0,0.3,0,0.5,0c1.3,0.2,2.6,0.3,3.8-0.7c0.3-0.1,0.6-0.2,0.8-0.3c0.1,0,0.2,0.1,0.3,0.1
		c0.7,1.4,1.2,1.1,1.6-0.2c1.8-1.6,3.3-3.8,6.2-2.9c0.2,0.1,0.4-0.1,0.6-0.2c2.1-1.5,4.5-1.1,6.8-1.2c0.3,0.3,0.4,0.8,0.9,0.9
		c0.2,0.5,0.5,0.5,0.9,0.5c0.2,0.3,0.4,0.5,0.6,0.8c0.1,0.2,0.2,0.4,0.3,0.6c0,0.2,0.1,0.4,0.1,0.6c0.1,1.7,1.1,0.7,1.7,0.7
		c0,0.2-0.1,0.3-0.1,0.5c-0.6,0.4-0.4,0.8,0.1,1.1c0.1,0.1,0.2,0.2,0.3,0.3c0.1,0.2,0.2,0.4,0.3,0.6c0,1.2,0.7,1.9,1.5,2.6
		c0,0.4,0.2,0.8,0.6,0.9c0.3,0.6,1.3,1.1,0.8,2c-0.6,0.9-1.3,1.8-2.5,1.7c-0.7,0-1.4-0.1-2.1,0.3c-0.3,0.1-0.5,0.4-0.4,0.8
		c0.1,0.4,0.4,0.5,0.7,0.4c1.5-0.4,1.6,0.2,1,1.4c-0.1,0.2-0.1,0.5-0.1,0.8c0,1.3-0.7,1.5-1.6,0.9c-0.7-0.5-0.7-0.3-1,0.4
		c-0.4,0.9-0.9,1.8-2.1,1.7c0.1-0.1,0-0.1,0-0.2c0.1-0.3-0.1-0.4-0.3-0.4c-0.8-0.3-0.7,0.8-1.2,1c-0.8-0.1-0.6-0.7-0.4-1.2
		c0.3-0.8,0.2-1.6-0.6-2c-0.2-0.8-0.7-1.5-1.3-2c-1.1-1.3-2.4-2.4-3.7-3.5c-1.3-1.1-2.2-2.4-2.6-4.1c0.1-1,0.2-2-0.1-3.1
		c-0.4,1-1.1,1.9-0.5,3c0,2.1,0.9,3.5,2.3,4.8c1.4,1.2,2.7,2.4,4.1,3.6c0.4,0.6,0.7,1.4,1.5,1.4c0.2,1.2-0.2,2.2-0.3,3.4
		c-0.1,0.2-0.1,0.4-0.2,0.7c-0.1,0.1-0.1,0.1-0.1,0.3c-0.3,0.3-0.5,0.5-0.8,0.8c-1.2-0.2-0.2-1.8-1.1-2.1C53,52.9,53.2,54,52.9,55
		c-0.2,0.7,0.3,1,0.9,0.5c0.2,0,0.4,0,0.6,0c0.1,0.6,0.1,1.3,0.3,1.8c0.7,1.6,0.9,3.5,2.8,4.2c1.3,0.5,1.5,1.8,0.5,2.8c-1,0-2,0-3,0
		c-0.2-0.1-0.4-0.2-0.6-0.3c-0.6-0.5-0.4-1.6-1.2-2c-0.4-0.4-0.7-0.7-1.1-1.1c-0.1-0.4-0.2-0.8-0.6-0.9c-0.1-0.4-0.3-0.6-0.6-0.7
		c-0.7-1.2-1.5-2.5-2.2-3.7c-0.2-0.7-0.8-0.4-1.2-0.6c-0.8-0.4-2-0.1-2-1.6c0.9-0.6,1.9-1,2-2.8c-0.9,0.9-1.5,1.5-2.1,2.1
		c-0.8,0.3-1.4,1-1.8,1.8c-0.7,1.3-1.4,2.7-2.1,4c-1.3,2.3-1.3,2.5,0.7,4.1c0.3,0.3,0.6,0.5,0.6,1c-0.1,0.5-0.5,0.6-0.9,0.8
		c-1.4,0.4-3,0.9-3.9-0.5c-0.7-1-1-2.7-0.6-4c0.6-1.8,0.7-3.8,1.2-5.6c1.2,0.2,1.6-0.5,1.5-1.7c0-1,0-2,0-3.2c-1.3,1-1.1,2-0.9,3
		c0.1,0.5,0.4,1-0.4,1.2c0.2-0.9-0.3-1.2-1-1.1c-2,0.4-3.8-0.4-5.7-1.2c-1.7-0.8-2.4-0.4-2.9,1.5c-0.3,1-0.4,2.1-0.8,3.1
		c-1,2.6-1,2.8,1,4.6c0.7,0.6,1.4,0.9,2.2,0.8c0.9-0.1,1.5,0.5,1.6,1.4c0.1,1-0.7,1-1.4,1.1c-0.5,0.1-1.1,0.2-1.6,0.3
		c-0.8,0.1-1.6,0.3-2.3-0.4c-0.6-0.6-1.4-1-2-1.7c-1.6-1.6-4-2.7-3.1-5.8c0.3-0.3,0.3-0.6,0-1c-0.1-0.7-0.2-1.4-0.5-2
		c-0.2-0.3-0.6-0.7-0.8-0.5c-1,1.1-2.8,0.7-3.6,2.3c-0.2,0.5-0.8,0.9-1.2,1.1c-1.7,0.7-2.3,1.9-2.3,3.8c0,0.9-0.2,1.4,1,1.3
		c0.9-0.1,1.5,0.8,1.8,1.7c0.2,0.6-0.1,1.2-0.6,1.3c-1.4,0.4-2.8,0.9-4.1-0.2c-0.1-0.5-0.3-0.9-0.4-1.4c0,0,0.1-0.1,0.1-0.1
		c0-0.1-0.1-0.1-0.1-0.2c0-0.2-0.1-0.4-0.1-0.6c-0.6-1.2-0.8-2.5-0.5-3.9c0.1-0.4,0.1-0.9-0.1-1.3c0.1-0.3-0.1-0.5-0.3-0.6
		c0-0.2,0-0.5,0-0.7c0.4-0.8,1.6-0.8,1.7-1.8c0.4-2.9,1.5-5.6,2.8-8.2c0.3-0.5,0.5-1.1,0.8-1.6c0.4-0.1,0.2-0.4,0.2-0.6
		c0.5-0.2,0.1-0.8,0.4-1c0.1,0,0.2-0.1,0.2-0.2c0.4-0.6,0.1-0.7-0.4-0.6c-2.1-0.1-4.2-0.4-6.3,0.2c-0.2,0-0.4,0-0.6,0.1
		c-1.2-0.1-2.3,0-3.2,1.1c-1.2,0.4-2.1,1.1-2.5,2.4c-0.4,0.2-0.6,0.5-0.4,1c-0.1,0.3-0.1,0.6-0.2,0.9c-0.2,0.3-0.2,0.6,0,1
		c0,0.2,0.1,0.4,0.1,0.6c-0.1,0.6,0.3,0.9,0.7,1.2c0.2,0.5,0.6,0.9,1,1.1c0.2,0.5,0.5,0.7,0.9,0.5c0.3,0.1,0.6,0.1,0.9,0.2
		c1.6,0.6,3,1.3,3.6,3.2c-0.3,0.1-0.6,0.1-0.9,0.2c-0.3-0.1-0.6,0-0.8,0.3c-0.5,0-1,0-1.5-0.1c-0.1-0.2-0.3-0.3-0.5-0.2l-0.1-0.1
		c0,0-0.1,0-0.1,0C6.6,54.5,6.4,54.4,6.3,54.4z M58.9,41.2c-0.2,0.4-0.5,0.9,0,1c0.5,0.1,0.4-0.6,0.4-1c0.2-0.2,0.3-0.4,0-0.5
		C59,40.6,58.9,40.9,58.9,41.2z M22.5,51.2c1.3-0.5,2.2-1.6,3.5-2.7C23.7,48.8,22.8,49.6,22.5,51.2c-0.2,0.1-0.5,0.1-0.5,0.4
		c0,0,0.1,0.1,0.1,0.1C22.4,51.7,22.4,51.4,22.5,51.2z M47.7,44.2c-0.2-0.8-0.3-1.6-0.5-2.4c-0.4,0.8-0.7,1.6,0,2.4
		c0,1.7,1,2.8,2.1,3.9c1.1,1.2,2.7,1.8,3.5,3.5c0.2,0.4,0.5,0.3,0.7,0.1c0.5-0.3,0.1-0.5-0.1-0.7c-0.3-0.7-0.8-1.1-1.4-1.6
		C50.3,47.9,48.3,46.6,47.7,44.2z M42,42.6c1.9-1,2.7-3.4,1.7-5.5C42.7,38.8,43.1,41,42,42.6z M61,48.1c-0.1-1.5-1.1-2-1.8-2.7
		c-0.9-0.9-0.3-2-0.7-3C57.3,44.5,57.8,45.5,61,48.1z M28,48.5c0.1,0,0.3,0,0.4-0.1c-0.1-1.7-0.3-3.4-0.4-5.1c-0.2,0-0.3,0-0.5,0.1
		C27.6,45.1,27.2,46.9,28,48.5z M61.5,37.3c-1.6-0.5-2.6,0.1-3.4,1.1c-0.2,0.2-0.2,0.5,0,0.7c0.1,0.1,0.3,0.1,0.4,0.1
		C59,37.9,60.4,38.1,61.5,37.3z"/>
	<path class="st1" d="M25.7,35.2c-2.3,0.5-4.7,0.7-6.8,1.8c-1.8,0.9-3.7,0.8-5.6,1c-0.9,0.1-1.1-0.2-0.7-1.1
		c3.9-10.4,7.8-20.7,11.7-31.1c0.6-1.5,1.1-3,1.8-4.9c0.8,2,1.4,3.6,2.1,5.3c3.5,9.3,6.9,18.7,10.4,28c0.3,0.7,0.5,1.3-0.4,1.4
		c-4.1,0.6-8.2,0.4-12.2-0.3c1.3-0.4,2.7,0.2,3.9-0.6c-2.2,0-4.3,0-6.5,0c0,0.1,0,0.2,0,0.3C24.1,35,24.9,35.1,25.7,35.2z"/>
	<path class="st2" d="M38.2,20.3c0.4-0.9,0.8-1.7,0.9-2.6c0.3-0.1,0.3-0.3,0.3-0.6c0.1-0.2,0.1-0.3,0.2-0.5c0.2-0.2,0.4-0.5,0.3-0.9
		c0.1-0.4,0.3-0.8,0.4-1.3c0.3-0.1,0.3-0.3,0.3-0.6c0.3-0.9,0.6-1.7,0.9-2.6c0.3-0.1,0.3-0.3,0.3-0.6c0.3-0.9,0.6-1.7,0.9-2.6
		C43,7.8,43,7.6,43,7.3c0.2-0.1,0.5-0.2,0.7,0c-0.1,0.3,0,0.5,0.2,0.7c0,0,0,0,0,0c-0.1,0.3,0,0.5,0.3,0.6c0.3,0.9,0.6,1.7,0.9,2.6
		c-0.1,0.3,0,0.5,0.3,0.6c0.1,0.3,0.2,0.7,0.3,1c0,0.3,0.1,0.5,0.3,0.6c0.1,0.3,0.2,0.7,0.3,1c0,0.3,0,0.5,0.3,0.6
		c0.3,0.8,0.5,1.5,0.8,2.3c-0.1,0.2,0,0.3,0.1,0.3c0,0,0,0,0,0c-0.1,0.3,0,0.5,0.2,0.7c0.1,0.2,0.1,0.4,0.2,0.6
		c-0.1,0.2,0,0.3,0.1,0.4c0,0,0,0,0,0c0,0.3,0.1,0.5,0.3,0.6c0.1,0.8,0.5,1.5,0.8,2.2c0.1,1.3,0.4,2.4,1.2,3.4c0,0.1,0,0.2,0.1,0.2
		c0.4,1.3,0.8,2.5,1.3,3.8c0.6,1.6,0.5,1.8-1.1,1.7c-1.6-0.1-3.2,0-4.2,1.6c-0.8,1.3-1.9,1.8-3.3,1.8c-0.1-0.1-0.2-0.1-0.3-0.1
		c0-0.4-0.2-0.6-0.4-0.8c0-0.7-0.4-1.2-0.6-1.7c0.1-0.2,0-0.3-0.1-0.4c-0.8-2.1-1.6-4.3-2.4-6.4c0-0.3-0.1-0.5-0.3-0.6
		c-0.1-1-0.6-1.8-0.9-2.6C38.1,21.3,38,20.8,38.2,20.3z"/>
	<path class="st3" d="M49.7,64c0.1,0.2,0.1,0.3,0.2,0.5c0,0.3,0,0.5,0.3,0.6c0.1,0.2,0.1,0.4,0.2,0.6c0,0.2,0.1,0.5,0.1,0.7
		c-0.1,1-0.8,0.6-1.3,0.6c-15.2,0-30.5,0-45.7,0c0.1-0.8,0.7-0.7,1.1-0.7c1.6,0,3.2,0,4.8,0c0.7,0,1.6,0.4,2-0.3
		c0.3-0.6-0.7-0.9-0.9-1.5c0,0-0.1-0.1-0.1-0.1c-0.1-2.2-2-4-1.3-6.4c0.1-0.4,0-0.6-0.4-0.7c-0.6-0.2-0.4-0.8-0.4-1.2
		c1.8-0.3,1.9-0.3,1.8,1.6c0,0.2,0,0.4,0,0.6c-0.5,1.2-0.1,2.3,0.6,3.2c0.1,0.3,0.1,0.6,0.2,1c-0.1,0.3-0.1,0.5,0.2,0.7
		c0,0.5,0.2,1,0.5,1.3c1.1,1.4,2.5,1,3.9,0.9c1.2,0,2.2-0.4,2.5-1.8c0.3-1.4-0.3-2.4-1.4-3.1c-1.4-1-1.4-2.6,0.2-3.3
		c0.9-0.4,1.7-1,2.2-1.8c0.6-0.9,1.7-1.4,2.5-1c0.8,0.3,0.5,1.6,0.3,2.3c-0.3,1.3,0.1,2.3,0.9,3.2c1,1.1,2.1,2,3.1,3.1
		c1.8,2,3.9,2.2,6.3,1.8c1-0.2,1.8-0.6,2.1-1.6c0.4-1-0.3-1.7-0.8-2.4c-0.5-0.6-1.2-0.6-1.9-0.6c-1.6-0.1-3.2-1.9-2.5-3.1
		c0.6-1.2,1-2.4,1.2-3.8c0.1-1.1,0.6-1.4,1.7-1c1.6,0.6,3.3,1.4,5.1,1.1c0.7-0.1,1,0.3,0.7,0.9c-0.7,1.7-0.7,3.6-1.1,5.3
		c-0.4,1.7-0.5,3.6,0.9,5c1.1,1.1,2.4,1.1,3.8,0.8c1.1-0.2,2.3-0.5,2.6-1.9c0.3-1.2-0.7-1.8-1.5-2.3c-0.7-0.4-0.8-0.9-0.3-1.7
		c0.8-1.4,1.9-2.6,2.5-4.2c0.2-0.4,0.4-0.6,0.8-0.2c-0.4,1.4-1.2,2.6-2,3.9c-0.5,0.9-0.6,1.4,0.4,2c1.1,0.7,1.4,2.2,0.7,3.4
		c-0.3,0.6-0.7,1.1-1.1,1.7c2.1,0.4,4-0.2,6,0.4c0.5,0.1,0.6-0.2,0.4-0.7c-0.5-1.3-1-2.5-1.5-3.8c-0.7-2.1-1.4-4.3-2.1-6.4
		c0.2,0,0.4,0,0.6,0c0.3,0.6,0.5,1.2,0.8,1.8c-0.1,0.4,0.1,0.8,0.4,1c0.1,0.2,0.1,0.4,0.2,0.6c-0.1,0.6,0.3,1.1,0.6,1.5
		c0.1,0.2,0.1,0.3,0.2,0.5c-0.1,0.5,0.1,0.8,0.4,1.2c0.1,0.2,0.1,0.3,0.2,0.5C49.3,63.3,49.4,63.7,49.7,64z M28,66.5
		c0.1-0.5-0.3-0.9-0.6-0.9c-1.3,0.1-1.9-0.7-2.4-1.9c-0.1-0.2-0.3-0.3-0.4-0.5c-1.7-1.8-4-3.1-3.9-6.3c0-0.6-0.9-1-0.9-0.8
		c0.1,1.3-1,0.9-1.5,1.2c-1.1,0.9-1.3,1.7-0.5,2.8c1.8,2.5,1.8,3.1-0.1,5.4c-0.2,0.2-0.3,0.4-0.2,0.7c0.1,0.4,0.4,0.2,0.6,0.2
		C21.4,66.3,24.7,66.4,28,66.5z M36.2,55.3c0-0.2-0.4-0.3-0.7-0.5c-1-0.6-2.2-0.5-3.3-1.2c-1.2-0.8-1.6-0.4-1.7,1.2
		c0,0.6-0.1,1.1-0.4,1.7c-0.5,0.9,0.2,2.5,1,2.5c1.2,0.1,2.2,0.5,3,1.5c0.2,0.3,0.6,0.7,0.8,0.1C35.5,58.9,35.8,57.2,36.2,55.3z
		 M31.3,66c1.2,0.5,2.3,0.4,3.4,0.4c0.7,0,1.7,0.5,2-0.4c0.3-0.9-0.9-1.3-1.2-2.1c-0.2-0.4-0.6-0.5-0.8,0C34.1,65.5,32.9,66,31.3,66
		z"/>
	<path class="st4" d="M45.1,55.3c-0.4-0.4-0.6-0.2-0.8,0.2c-0.6,1.6-1.7,2.8-2.5,4.2c-0.5,0.8-0.3,1.3,0.3,1.7
		c0.8,0.5,1.8,1.1,1.5,2.3c-0.3,1.3-1.4,1.7-2.6,1.9c-1.4,0.2-2.8,0.3-3.8-0.8c-1.4-1.4-1.3-3.4-0.9-5c0.5-1.8,0.5-3.6,1.1-5.3
		c0.3-0.7,0-1-0.7-0.9c-1.8,0.3-3.4-0.5-5.1-1.1c-1.1-0.4-1.5-0.1-1.7,1c-0.2,1.3-0.5,2.6-1.2,3.8c-0.6,1.2,0.9,3,2.5,3.1
		c0.7,0,1.4,0,1.9,0.6c0.6,0.7,1.2,1.4,0.8,2.4c-0.3,1-1.2,1.4-2.1,1.6c-2.4,0.4-4.5,0.2-6.3-1.8c-1-1.1-2.1-2-3.1-3.1
		c-0.8-0.9-1.2-1.9-0.9-3.2c0.2-0.8,0.5-2-0.3-2.3c-0.8-0.3-1.8,0.1-2.5,1c-0.6,0.8-1.3,1.4-2.2,1.8c-1.6,0.7-1.6,2.3-0.2,3.3
		c1.1,0.7,1.7,1.7,1.4,3.1c-0.3,1.4-1.4,1.8-2.5,1.8c-1.4,0.1-2.8,0.4-3.9-0.9c0.4-0.1,0.7-0.3,0.8-0.7c1.3,1.2,2.8,0.6,4.1,0.2
		c0.5-0.1,0.8-0.7,0.6-1.3c-0.3-0.9-0.9-1.8-1.8-1.7c-1.2,0.1-1-0.4-1-1.3c0.1-1.8,0.7-3.1,2.3-3.8c0.5-0.2,1-0.6,1.2-1.1
		c0.7-1.6,2.6-1.3,3.6-2.3c0.3-0.3,0.6,0.1,0.8,0.5c0.4,0.6,0.4,1.3,0.5,2c0,0.3,0,0.6,0,1c-0.9,3.1,1.5,4.2,3.1,5.8
		c0.6,0.6,1.4,1.1,2,1.7c0.7,0.7,1.5,0.5,2.3,0.4c0.5-0.1,1.1-0.2,1.6-0.3c0.7-0.1,1.5-0.1,1.4-1.1c-0.1-0.8-0.7-1.5-1.6-1.4
		c-0.9,0.1-1.6-0.2-2.2-0.8c-2.1-1.8-2.1-2-1-4.6c0.4-1,0.5-2.1,0.8-3.1c0.5-1.9,1.2-2.3,2.9-1.5c1.8,0.8,3.6,1.6,5.7,1.2
		c0.7-0.1,1.2,0.1,1,1.1c-0.3,0.1-0.4,0.4-0.3,0.7c-0.5,1.8-0.6,3.8-1.2,5.6c-0.5,1.3-0.1,3,0.6,4c0.9,1.3,2.5,0.9,3.9,0.5
		c0.4-0.1,0.8-0.3,0.9-0.8c0.1-0.5-0.2-0.8-0.6-1c-2-1.6-2-1.8-0.7-4.1c0.8-1.3,1.4-2.7,2.1-4c0.4-0.8,1-1.5,1.8-1.8
		c0,0.2,0,0.4,0,0.7c0,1.5,1.2,1.2,2,1.6c0.4,0.2,1-0.1,1.2,0.6c-0.7,0.4-1.6-1-2.1,0.4c-0.2,0-0.4,0-0.6,0
		C45.7,55.5,45.4,55.4,45.1,55.3z"/>
	<path class="st2" d="M61.6,55.4c0.7,1.9,1.4,3.9,2.2,5.8c0,0.3,0,0.5,0.3,0.6c0,0.7,0.4,1.3,0.7,1.9c-0.1,0.3,0,0.5,0.2,0.7
		c0,0.2,0.1,0.4,0.1,0.5c0.1,0.1,0.1,0.3,0.2,0.4c0.2,0.4,0.3,0.8,0.5,1.1c-0.2,0.9-0.8,0.8-1.4,0.8c-3,0-5.9,0-8.9,0
		c-0.1-0.1-0.1-0.1-0.2,0c-0.2-0.6-0.4-1.3-0.7-1.9l0.1,0.1l0.1,0c0.2-0.1,0.4-0.1,0.6-0.2c0.6,0,1.2,0,1.8,0
		c0.3,0.3,0.6,0.1,0.9,0.2c0.4,0.5,0.5,0.2,0.6-0.2c0.1-0.1,0.1-0.1,0.1-0.2c0,0,0.1,0,0.1,0c0.3,0,0.5-0.3,0.7-0.4
		c0.1-0.1,0.2-0.2,0.3-0.4c0-0.1,0.1-0.2,0.1-0.3c0.3-0.5,0.3-0.9,0-1.3c-0.4-0.9-0.7-1.9-1.6-2.2C57,60,56.4,58.8,56,57.8
		c-0.4-1.1-0.9-2.4,0.2-3.4c0.8-0.7,1.6-1.2,2.4-1.9c0.1,0.1,0.2,0.2,0.3,0.3c0.3,1.3,1.5,0.1,2,0.8c0.1,0.4,0.1,0.8,0.4,1.2
		C61.3,55.1,61.3,55.3,61.6,55.4z"/>
	<path class="st1" d="M8.3,56.1c0,0.5-0.1,1,0.4,1.2c0.3,0.1,0.5,0.4,0.4,0.7c-0.7,2.4,1.2,4.2,1.3,6.4c0,0,0.1,0.1,0.1,0.1
		c0.2,0.6,1.2,0.9,0.9,1.5c-0.4,0.7-1.3,0.2-2,0.3c-1.6,0.1-3.2,0-4.8,0c-0.5,0-1.1-0.1-1.1,0.7c-0.3,0-0.6,0-0.9,0
		c0-0.6,0-1.1,0.4-1.6c0.4-0.6,0.1-0.9-0.5-1c0-0.2,0.1-0.4,0.1-0.6c0.3-0.1,0.3-0.4,0.2-0.6c0.1-0.3,0.2-0.5,0.3-0.8
		C3.6,61.7,3.9,60.9,4,60c0.3-0.8,0.6-1.6,0.8-2.4c0.3-0.2,0.4-0.5,0.3-0.8c0.1-0.3,0.2-0.5,0.3-0.8c0.6-1,1.3,0.3,2-0.1
		C7.7,56,8,56.1,8.3,56.1z"/>
	<path class="st5" d="M2.6,67.1c0.3,0,0.6,0,0.9,0c15.2,0,30.5,0,45.7,0c0.5,0,1.2,0.3,1.3-0.6c0,0,0.1,0,0.1,0l0.1,0
		c0.3,1.2-0.2,1.5-1.2,1.5c-15.7,0-31.5,0-47.2,0c-0.4,0-0.9,0.2-1.2-0.4c-0.3-0.8,0.3-1.2,0.6-1.7c0.1,0,0.2,0,0.2-0.1
		C2.1,66.2,1.6,67.1,2.6,67.1z"/>
	<path class="st6" d="M43.2,34.6c1.4,0,2.4-0.5,3.3-1.8c1-1.5,2.6-1.7,4.2-1.6c1.6,0.1,1.6-0.1,1.1-1.7c-0.5-1.2-0.9-2.5-1.3-3.8
		c1,0.4,0.8,1.6,1.3,2.3c0.3,0.6,0.4,1.3,0.7,2c0.3,0.7,0.6,1.3,1.7,1c1.2-0.3,2.5-0.2,3.7-0.4c0.5-0.1,1.1-0.1,1.1,0.7
		c-2.3,0.1-4.7-0.4-6.8,1.2c-0.2,0.1-0.4,0.2-0.6,0.2c-2.8-1-4.4,1.2-6.2,2.9c-0.5,0-1.1-0.3-1.6,0.2c-0.1,0-0.2-0.1-0.3-0.1
		C43.4,35.3,43.3,34.9,43.2,34.6z"/>
	<path class="st6" d="M59.5,64.5c-0.2,0.2-0.4,0.5-0.7,0.4c-0.3-0.2-0.5-0.5-0.8-0.7c1-1,0.8-2.3-0.5-2.8c-1.9-0.7-2.2-2.6-2.8-4.2
		c-0.2-0.5-0.2-1.2-0.3-1.8c0-0.2,0.1-0.4,0.1-0.6c0.2-0.1,0.3-0.3,0.3-0.6c0.3-0.3,0.5-0.5,0.8-0.8c0.2,0,0.2-0.1,0.1-0.3
		c0.1-0.2,0.1-0.4,0.2-0.7c0.5-0.2,1.1,0.4,1.5-0.3c0.5-0.1,0.4-1.3,1.2-1c0.1,0.1,0.2,0.2,0.3,0.4c0.1,0.1,0.1,0.1,0,0.2
		c-0.1,0.2-0.2,0.5-0.3,0.7c-0.8,0.6-1.6,1.2-2.4,1.9c-1.1,1-0.7,2.3-0.2,3.4c0.4,1.1,1,2.2,2.3,2.6c1,0.3,1.2,1.3,1.6,2.2
		c0,0.4,0,0.9,0,1.3c0,0.1-0.1,0.2-0.1,0.3C59.7,64.3,59.6,64.4,59.5,64.5z"/>
	<path class="st7" d="M55.3,67.4c3,0,5.9,0,8.9,0c0.6,0,1.2,0.2,1.4-0.8c0.8,1,0.5,1.4-0.7,1.4c-3.2,0-6.4,0-9.6,0
		C55.4,67.8,55.3,67.6,55.3,67.4z"/>
	<path class="st8" d="M38.4,36.6c-0.1,0.4-0.4,0.7-0.7,0.7c-2.3-0.1-4.5,0.4-6.8-0.2C33.4,36.7,35.9,37.1,38.4,36.6z"/>
	<path class="st3" d="M25.7,35.2c-0.8-0.1-1.6-0.2-2.4-0.3c0-0.1,0-0.2,0-0.3c2.2,0,4.3,0,6.5,0c-1.2,0.8-2.6,0.2-3.9,0.6
		C25.9,35.2,25.8,35.3,25.7,35.2L25.7,35.2z"/>
	<path class="st9" d="M2.5,44.3c-0.2,2.2-0.4,4.5,0.7,6.6C1.6,48.9,1.6,46.6,2.5,44.3z"/>
	<path class="st9" d="M12,39.2c-1.4,1-3.1,0.7-4.6,1.1C8.8,39.4,10.4,39.2,12,39.2z"/>
	<path class="st8" d="M42.7,35.9c-1.1,1-2.5,0.9-3.8,0.7C40.1,36.1,41.4,35.6,42.7,35.9z"/>
	<path class="st6" d="M50.4,25.5c-0.8-1-1.2-2.1-1.2-3.4C49.9,23.1,50.6,24.1,50.4,25.5z"/>
	<path class="st3" d="M2.6,67.1c-1,0-0.5-0.9-0.6-1.4c0.2-0.3,0.4-0.6,0.2-0.9c0.1-0.1,0.2-0.3,0.3-0.4c0.6,0.1,1,0.4,0.5,1
		C2.6,66,2.6,66.5,2.6,67.1z"/>
	<path class="st4" d="M7.4,55.9c-0.6,0.4-1.3-0.9-2,0.1c-0.2-0.5,0-0.8,0.5-0.8c0.4,0,0.8-0.1,1-0.5c0.2-0.1,0.4,0,0.5,0.2
		C7.5,55.2,7.4,55.5,7.4,55.9z"/>
	<path class="st6" d="M63.5,35.4c-0.7,0.1-1.6,1-1.7-0.7c0.5,0.2,0.9,0.4,1.4,0.1C63.5,34.7,63.8,34.9,63.5,35.4z"/>
	<path class="st6" d="M60.9,53.6c-0.5-0.7-1.7,0.5-2-0.8C59.6,53.2,60.7,52.2,60.9,53.6z"/>
	<path class="st4" d="M4,60c-0.1,0.9-0.4,1.7-0.9,2.5C3,61.4,3.1,60.5,4,60z"/>
	<path class="st9" d="M19.5,38.1c-0.5,0.9-1.3,0.5-2,0.6C18,38,18.8,38.4,19.5,38.1z"/>
	<path class="st9" d="M17.1,38.8c-0.5,0.8-1.1,0.4-1.7,0.3C15.9,38.8,16.5,38.7,17.1,38.8z"/>
	<path class="st6" d="M38.2,20.3c-0.2,0.5-0.1,1,0,1.6C37.2,21.3,37.1,20.8,38.2,20.3z"/>
	<path class="st9" d="M3.9,51.5c0.5,0.1,1,0.2,1.1,0.8C4.6,52.2,4.1,52.1,3.9,51.5z"/>
	<path class="st4" d="M48.5,60.8c-0.3-0.4-0.7-0.9-0.6-1.5C48.5,59.6,48.7,60.1,48.5,60.8z"/>
	<path class="st6" d="M52.1,60.8c0.4,0.4,0.7,0.7,1.1,1.1C52.5,61.9,51.9,61.7,52.1,60.8z"/>
	<path class="st6" d="M58.7,65c0,0.1,0,0.2-0.1,0.2c-0.3-0.1-0.5,0-0.6,0.2c-0.3-0.1-0.6,0.1-0.9-0.2C57.5,64.5,58.1,64.8,58.7,65z"
		/>
	<path class="st4" d="M47.7,58.7c-0.4-0.2-0.5-0.5-0.4-1C47.7,57.9,48.2,58,47.7,58.7z"/>
	<path class="st4" d="M49.1,62.4c-0.3-0.3-0.5-0.7-0.4-1.2C49.4,61.4,49.3,61.9,49.1,62.4z"/>
	<path class="st4" d="M49.7,64c-0.3-0.3-0.4-0.7-0.4-1.1C50,63,49.9,63.5,49.7,64z"/>
	<path class="st6" d="M54.5,65.4c-0.3,0-0.7,0-0.5-0.4c0.1-0.3,0.5-0.2,0.7,0.1c0,0.1,0,0.3,0,0.4l-0.1,0L54.5,65.4z"/>
	<path class="st6" d="M63.4,37c-0.5-0.3-0.7-0.7-0.1-1.1C63.3,36.3,63.4,36.6,63.4,37z"/>
	<path class="st6" d="M66.1,41.5c-0.4-0.2-0.6-0.5-0.6-0.9C66.1,40.6,66.1,41,66.1,41.5z"/>
	<path class="st4" d="M2.2,64.8c0.2,0.4-0.1,0.6-0.2,0.9c-0.1,0-0.1,0.1-0.2,0.1C1.7,65.4,1.6,64.9,2.2,64.8z"/>
	<path class="st6" d="M60.7,32.7c-0.4,0-0.7,0-0.9-0.5C60.2,32.1,60.6,32.1,60.7,32.7z"/>
	<path class="st9" d="M14.2,39.2c-0.5,0.2-1.1,0.2-1.6,0C13.1,39.2,13.7,39,14.2,39.2z"/>
	<path class="st6" d="M55.3,67.4c0,0.2,0,0.4,0,0.6c-0.2-0.1-0.4,0-0.5-0.2c-0.1-0.2,0.1-0.4,0.3-0.5C55.2,67.3,55.3,67.3,55.3,67.4
		z"/>
	<path class="st4" d="M5.2,56.7c0.1,0.4-0.1,0.6-0.3,0.8C4.7,57.1,4.7,56.8,5.2,56.7z"/>
	<path class="st6" d="M64,38c-0.1-0.2-0.2-0.4-0.3-0.6C64.1,37.4,64.4,37.5,64,38z"/>
	<path class="st8" d="M22.5,37.1c-0.2,0.3-0.5,0.3-0.7,0.1C21.9,36.9,22.2,36.8,22.5,37.1z"/>
	<path class="st9" d="M6.5,40.5C6.5,40.8,6.3,41,6,40.9C6.1,40.7,6.2,40.3,6.5,40.5z"/>
	<path class="st8" d="M29.1,36.8c-0.2,0.3-0.4,0.2-0.6-0.1C28.7,36.5,28.9,36.6,29.1,36.8z"/>
	<path class="st8" d="M23.7,36.7c-0.1,0.3-0.4,0.4-0.7,0.3C23.1,36.6,23.3,36.5,23.7,36.7z"/>
	<path class="st6" d="M43,7.3c0,0.3,0,0.5-0.3,0.6C42.2,7.4,42.6,7.4,43,7.3z"/>
	<path class="st6" d="M44.1,8.6c-0.3-0.1-0.3-0.3-0.3-0.6C44.3,8,44.6,8.1,44.1,8.6z"/>
	<path class="st6" d="M41.8,10.6c0,0.3,0,0.5-0.3,0.6C41,10.6,41.4,10.6,41.8,10.6z"/>
	<path class="st6" d="M45.3,11.8C45,11.7,45,11.5,45,11.2C45.5,11.2,45.7,11.4,45.3,11.8z"/>
	<path class="st6" d="M45.9,13.4c-0.2-0.1-0.3-0.3-0.3-0.6C46.1,12.8,46.4,12.9,45.9,13.4z"/>
	<path class="st6" d="M40.6,13.8c0,0.3,0,0.5-0.3,0.6C39.8,13.8,40.2,13.8,40.6,13.8z"/>
	<path class="st6" d="M46.5,15.1c-0.3-0.1-0.3-0.4-0.3-0.6C46.7,14.5,47,14.6,46.5,15.1z"/>
	<path class="st6" d="M50.8,59.2c0.4,0.1,0.6,0.3,0.6,0.7C51,60,50.8,59.7,50.8,59.2z"/>
	<path class="st6" d="M39.9,15.7c0.1,0.4-0.1,0.6-0.3,0.9C39.3,16.1,39.4,15.8,39.9,15.7z"/>
	<path class="st6" d="M42.5,33.6c0.3,0.2,0.4,0.5,0.4,0.8C42.4,34.4,42.3,34.1,42.5,33.6z"/>
	<path class="st6" d="M61.6,34.1c-0.1-0.2-0.2-0.4-0.3-0.6C61.7,33.5,62,33.6,61.6,34.1z"/>
	<path class="st6" d="M39.4,17c0,0.3-0.1,0.5-0.3,0.6C38.6,17.1,39,17.1,39.4,17z"/>
	<path class="st6" d="M47.7,18.3c-0.3-0.1-0.3-0.4-0.2-0.7C47.9,17.7,48.2,17.8,47.7,18.3z"/>
	<path class="st6" d="M64,61.9c-0.2-0.1-0.3-0.4-0.3-0.6C64.2,61.3,64.4,61.4,64,61.9z"/>
	<path class="st6" d="M61.6,55.4c-0.2-0.1-0.3-0.4-0.3-0.6C61.8,54.9,62,55,61.6,55.4z"/>
	<path class="st6" d="M48.3,19.9c-0.2-0.1-0.3-0.3-0.3-0.6C48.5,19.3,48.7,19.4,48.3,19.9z"/>
	<path class="st4" d="M2.8,63.2c0.1,0.3,0,0.5-0.2,0.6C2.2,63.4,2.4,63.3,2.8,63.2z"/>
	<path class="st6" d="M64.9,64.5c-0.3-0.1-0.3-0.4-0.2-0.7C65.1,63.9,65.3,64.1,64.9,64.5z"/>
	<path class="st4" d="M50.1,65.1c-0.2-0.1-0.3-0.3-0.3-0.6C50.3,64.5,50.6,64.6,50.1,65.1z"/>
	<path class="st4" d="M50.7,66.5l-0.1,0c0,0-0.1,0-0.1,0c0-0.2-0.1-0.5-0.1-0.7C50.7,65.8,50.8,66.1,50.7,66.5z"/>
	<path class="st6" d="M39.1,24.4c0.2,0.1,0.3,0.3,0.3,0.6C39,25,38.6,25,39.1,24.4z"/>
	<path class="st6" d="M54.4,63.9c0.2,0.1,0.4,0.2,0.6,0.3C54.7,64.2,54.5,64.2,54.4,63.9z"/>
	<path class="st7" d="M54.7,65.5c0-0.1,0-0.3,0-0.4c0.2,0.1,0.4,0.1,0.6,0.2C55.1,65.4,54.9,65.4,54.7,65.5z"/>
	<path class="st6" d="M43.8,7.9c-0.2-0.2-0.2-0.4-0.2-0.7C43.9,7.5,43.9,7.7,43.8,7.9z"/>
	<path class="st6" d="M41.8,31.5c0.2,0.1,0.2,0.2,0.1,0.4C41.9,31.7,41.8,31.6,41.8,31.5z"/>
	<path class="st6" d="M48,19.3c-0.2-0.1-0.2-0.2-0.1-0.4C47.9,19,48,19.2,48,19.3z"/>
	<path class="st6" d="M47.5,17.6c-0.2,0-0.2-0.1-0.1-0.3C47.4,17.4,47.4,17.5,47.5,17.6z"/>
	<path class="st4" d="M6.3,54.4c0.1,0.1,0.3,0.1,0.4,0.2C6.5,54.7,6.3,54.6,6.3,54.4z"/>
	<path class="st7" d="M65.2,65.5c-0.1-0.1-0.1-0.3-0.2-0.4C65.1,65.2,65.1,65.3,65.2,65.5z"/>
	<path class="st4" d="M5.9,54c0.1-0.1,0.2,0,0.2,0.2c0,0-0.1,0-0.1,0L5.9,54z"/>
	<path class="st4" d="M7.1,51.3c0.4-0.3,0.4-0.7,0.4-1.2c-0.1-0.6,0.1-1.2,0.8-1.4c0.1,0.6-0.8,1.3,0.1,1.7c1.1,0.5,1.9,1.4,2.6,2.4
		c0.2,0.3,0.4,0.5,0.7,0.4c0.4-0.1,0.2-0.5,0.3-0.8c0.7-2.5,1.2-5.1,2.8-7.2c0.3,0,0.6,0,0.9,0c-1.3,2.6-2.4,5.2-2.8,8.2
		c-0.2,1.1-1.3,1.1-1.7,1.8c-0.2-0.1-0.3-0.4-0.3-0.6C10.1,52.6,8.7,51.8,7.1,51.3z"/>
	<path class="st10" d="M54.7,47.7c-1.4-1.2-2.7-2.4-4.1-3.6c-1.4-1.3-2.4-2.7-2.3-4.8c0.2,0,0.4,0,0.6,0.1c0.3,1.8,1.3,3,2.6,4.1
		c1.3,1.1,2.6,2.1,3.7,3.5C55,47.2,54.8,47.5,54.7,47.7z"/>
	<path class="st4" d="M10.7,42.4c0.4-0.9,1.1-0.4,1.7-0.5c0.9-0.1,1.9,0,2.8-0.1c-1.6-0.6-3.3,0.2-4.8-0.5c2.1-0.5,4.2-0.3,6.3-0.2
		c0,0.3,0.1,0.5,0.4,0.6c0,0.1-0.1,0.2-0.2,0.2c-0.2-0.2-0.5-0.4-0.7,0c-0.2,0.4-0.1,0.8,0.3,1c0,0.2,0.1,0.5-0.2,0.6
		c-0.3-0.1-0.6-0.1-0.9-0.2c0.3-0.8-0.1-1-0.8-1C13.4,42.4,12,42.4,10.7,42.4z"/>
	<path class="st10" d="M47.7,44.2c0.6,2.5,2.6,3.7,4.3,5.1c0.6,0.5,1,1,1.4,1.6c0.1,0.2,0.6,0.4,0.1,0.7c-0.3,0.2-0.6,0.3-0.7-0.1
		c-0.7-1.7-2.3-2.3-3.5-3.5c-1.1-1.1-2-2.2-2.1-3.9C47.4,44.1,47.5,44.2,47.7,44.2z"/>
	<path class="st11" d="M10.7,54.5c0,0.3,0,0.5,0.3,0.6c0,0.2,0,0.5,0,0.7c-0.3,0.4-0.1,0.6,0.3,0.6c0.2,0.4,0.2,0.9,0.1,1.3
		c-0.6,0.5-0.5,1.3-0.7,2c-0.4-0.4,0-1.1-0.5-1.4c0-0.2,0-0.4,0-0.6c0.1-1.9,0-1.9-1.8-1.6C8,56.1,7.7,56,7.4,55.9c0-0.3,0-0.7,0-1
		c0.5,0,1,0,1.5,0.1c0.4,0.2,0.7,0.2,0.8-0.3C10.1,54.6,10.4,54.5,10.7,54.5z"/>
	<path class="st8" d="M42,42.6c1.1-1.7,0.7-3.8,1.7-5.5C44.7,39.2,44,41.6,42,42.6z"/>
	<path class="st10" d="M61,48.1c-3.2-2.6-3.7-3.7-2.5-5.7c0.4,1-0.1,2.1,0.7,3C59.9,46.1,60.9,46.7,61,48.1z"/>
	<path class="st4" d="M10.1,58.4c0.5,0.3,0.1,1,0.5,1.4c0.2-0.7,0.1-1.5,0.7-2c-0.3,1.4,0,2.7,0.5,3.9c-0.4,0-0.7,0-1.1,0
		C10,60.6,9.5,59.6,10.1,58.4z"/>
	<path class="st8" d="M38.5,54.2c-0.1-0.3-0.1-0.6,0.3-0.7c0.8-0.2,0.5-0.7,0.4-1.2c-0.2-1-0.4-2.1,0.9-3c0,1.3,0,2.3,0,3.2
		C40,53.7,39.7,54.4,38.5,54.2z"/>
	<path class="st8" d="M54.8,54.3c0,0.3,0,0.5-0.3,0.6c-0.5-0.1-0.7,0.1-0.7,0.6c-0.6,0.5-1.1,0.3-0.9-0.5c0.3-0.9,0.1-2,0.7-2.9
		C54.6,52.5,53.6,54,54.8,54.3z"/>
	<path class="st8" d="M28,48.5c-0.9-1.6-0.4-3.4-0.5-5.1c0.2,0,0.3,0,0.5-0.1c0.1,1.7,0.3,3.4,0.4,5.1C28.3,48.5,28.2,48.5,28,48.5z
		"/>
	<path class="st10" d="M22.5,51.2c0.3-1.6,1.2-2.4,3.5-2.7C24.7,49.6,23.8,50.7,22.5,51.2L22.5,51.2z"/>
	<path class="st9" d="M57.4,52.2c-0.4,0.7-1,0.2-1.5,0.3c0.1-1.1,0.5-2.2,0.3-3.4c0-0.1,0.1-0.1,0.2-0.2c0.8,0.5,0.8,1.2,0.6,2
		C56.7,51.5,56.6,52.1,57.4,52.2z"/>
	<path class="st10" d="M61.5,37.3c-1.2,0.8-2.5,0.6-3.1,1.9c0,0-0.3,0-0.4-0.1c-0.2-0.2-0.1-0.5,0-0.7C59,37.4,59.9,36.8,61.5,37.3z
		"/>
	<path class="st11" d="M10.7,61.6c0.4,0,0.7,0,1.1,0c0,0.2,0.1,0.4,0.1,0.6c-0.1,0.1-0.1,0.2,0,0.3c0.1,0.5,0.3,0.9,0.4,1.4
		c-0.2,0.4-0.4,0.6-0.8,0.7c-0.3-0.4-0.5-0.8-0.5-1.3c0.4-0.3,0.2-0.5-0.2-0.7C10.8,62.2,10.8,61.9,10.7,61.6z"/>
	<path class="st8" d="M48.8,39.3c-0.2,0-0.4,0-0.6-0.1c-0.6-1.2,0.1-2,0.5-3C49,37.3,49,38.3,48.8,39.3z"/>
	<path class="st10" d="M45.4,53.2c0-0.2,0-0.4,0-0.7c0.6-0.6,1.2-1.3,2.1-2.1C47.3,52.2,46.3,52.6,45.4,53.2z"/>
	<path class="st4" d="M9.8,41.3c-0.9,0.8-2.1,0.7-3.2,1.1C7.5,41.4,8.6,41.2,9.8,41.3z"/>
	<path class="st8" d="M54.7,47.7c0.1-0.3,0.3-0.5,0.4-0.8c0.6,0.5,1.1,1.2,1.3,2c-0.1,0-0.1,0.1-0.2,0.2
		C55.3,49.1,55.1,48.3,54.7,47.7z"/>
	<path class="st8" d="M47.7,44.2c-0.2,0-0.3,0-0.5,0c-0.6-0.7-0.3-1.5,0-2.4C47.4,42.6,47.5,43.4,47.7,44.2z"/>
	<path class="st8" d="M43.8,35.7c0.5-0.6,1-0.3,1.6-0.2C45,36.8,44.6,37.2,43.8,35.7z"/>
	<path class="st11" d="M15.4,43.4c0.3,0.1,0.6,0.1,0.9,0.2c-0.3,0.5-0.5,1.1-0.8,1.6c-0.3,0-0.6,0-0.9,0c0.1-0.2,0.1-0.4,0.2-0.6
		C15.3,44.3,15.6,44,15.4,43.4L15.4,43.4z"/>
	<path class="st11" d="M16.5,42.9c-0.4-0.3-0.5-0.6-0.3-1c0.2-0.4,0.5-0.2,0.7,0C16.7,42.1,17,42.7,16.5,42.9z"/>
	<path class="st4" d="M4.1,44.8c0.5,0.6,0,0.8-0.4,1C3.5,45.3,3.7,45,4.1,44.8z"/>
	<path class="st4" d="M3.6,48.3c0.6,0.1,0.9,0.5,0.7,1.2C3.8,49.2,3.5,48.9,3.6,48.3z"/>
	<path class="st10" d="M59.3,41.2c0,0.4,0,1.1-0.4,1c-0.5-0.1-0.2-0.7,0-1C59,41.2,59.1,41.2,59.3,41.2z"/>
	<path class="st4" d="M3.5,46.7c0.4,0.3,0.4,0.6,0,1C3.3,47.4,3.3,47,3.5,46.7z"/>
	<path class="st4" d="M5.3,50.6c0.4,0,0.8-0.1,0.9,0.5C5.8,51.3,5.5,51.1,5.3,50.6z"/>
	<path class="st4" d="M11.2,56.4c-0.4-0.1-0.6-0.2-0.3-0.6C11.2,56,11.3,56.1,11.2,56.4z"/>
	<path class="st8" d="M59.3,41.2c-0.1,0-0.3,0-0.4,0c0-0.3,0.1-0.6,0.4-0.5C59.5,40.8,59.4,41.1,59.3,41.2z"/>
	<path class="st9" d="M22.5,51.2c-0.1,0.2,0,0.5-0.4,0.5c0,0-0.1-0.1-0.1-0.1C22,51.3,22.3,51.3,22.5,51.2
		C22.5,51.2,22.5,51.2,22.5,51.2z"/>
	<path class="st4" d="M9.8,54.6c-0.2,0.5-0.5,0.5-0.8,0.3C9.2,54.7,9.5,54.5,9.8,54.6z"/>
	<path class="st9" d="M53.8,55.5c0-0.5,0.3-0.7,0.7-0.6c0,0.2-0.1,0.4-0.1,0.6C54.2,55.4,54,55.4,53.8,55.5z"/>
	<path class="st11" d="M17.2,41.7c-0.3-0.1-0.4-0.4-0.4-0.6C17.3,41,17.6,41.1,17.2,41.7z"/>
	<path class="st9" d="M22.9,56.1c0-0.3,0-0.6,0-1C23.2,55.4,23.2,55.8,22.9,56.1z"/>
	<path class="st11" d="M58.9,51.6c-0.1-0.1-0.2-0.2-0.3-0.4C58.8,51.2,59,51.3,58.9,51.6z"/>
	<path class="st4" d="M12,62.5c-0.1-0.1-0.1-0.2,0-0.3C12,62.3,12,62.4,12,62.5C12.1,62.4,12,62.5,12,62.5z"/>
	<path class="st9" d="M55.7,53.2c0.1,0.2,0,0.2-0.1,0.3C55.6,53.3,55.6,53.2,55.7,53.2z"/>
	<path class="st1" d="M28,66.5c-3.3-0.1-6.7-0.2-10,0c-0.3,0-0.5,0.2-0.6-0.2c-0.1-0.3,0.1-0.5,0.2-0.7c2-2.3,2-2.9,0.1-5.4
		c-0.8-1.1-0.6-1.9,0.5-2.8c0.5-0.4,1.5,0.1,1.5-1.2c0-0.2,0.9,0.2,0.9,0.8c-0.1,3.1,2.2,4.5,3.9,6.3c0.1,0.1,0.3,0.3,0.4,0.5
		c0.5,1.1,1.1,1.9,2.4,1.9C27.7,65.6,28.1,66,28,66.5z"/>
	<path class="st1" d="M45.1,55.3c0.3,0.1,0.6,0.2,0.8,0.5c0.7,2.1,1.4,4.3,2.1,6.4c0.4,1.3,1,2.5,1.5,3.8c0.2,0.5,0,0.8-0.4,0.7
		c-1.9-0.6-3.9,0-6-0.4c0.4-0.6,0.8-1.1,1.1-1.7c0.7-1.2,0.4-2.7-0.7-3.4c-1-0.6-0.9-1.1-0.4-2C43.8,58,44.7,56.8,45.1,55.3z"/>
	<path class="st1" d="M36.2,55.3c-0.4,1.9-0.7,3.6-1.2,5.3c-0.2,0.6-0.6,0.2-0.8-0.1c-0.8-1-1.8-1.4-3-1.5c-0.8,0-1.5-1.6-1-2.5
		c0.3-0.6,0.4-1.1,0.4-1.7c0-1.6,0.5-2,1.7-1.2c1.1,0.7,2.2,0.6,3.3,1.2C35.9,55,36.2,55,36.2,55.3z"/>
	<path class="st1" d="M31.3,66c1.5,0,2.8-0.5,3.4-2.1c0.2-0.5,0.6-0.4,0.8,0c0.3,0.8,1.5,1.2,1.2,2.1c-0.3,0.9-1.3,0.4-2,0.4
		C33.6,66.4,32.5,66.6,31.3,66z"/>
	<path class="st4" d="M10.9,62.5c0.3,0.1,0.5,0.3,0.2,0.7C10.8,63,10.8,62.8,10.9,62.5z"/>
	<path class="st7" d="M59.9,63.9c0-0.4,0-0.9,0-1.3C60.2,63,60.2,63.4,59.9,63.9z"/>
	<path class="st7" d="M58,65.4c0.2-0.2,0.4-0.3,0.6-0.2C58.5,65.6,58.4,65.9,58,65.4z"/>
	<path class="st7" d="M59.5,64.5c0.1-0.1,0.2-0.2,0.3-0.4C59.7,64.3,59.6,64.4,59.5,64.5z"/>
	<path class="st1" d="M14.8,44.5c-0.1,0.2-0.1,0.4-0.2,0.6c-1.5,2.1-2,4.7-2.8,7.2c-0.1,0.3,0.1,0.7-0.3,0.8
		c-0.3,0.1-0.5-0.2-0.7-0.4c-0.7-1-1.5-1.9-2.6-2.4c-0.9-0.4,0.1-1.1-0.1-1.7c0.1-0.3,0.1-0.5,0.2-0.8c0.2-0.2,0.4-0.5,0.4-0.8
		c0.3-0.8,0.6-1.6,0.8-2.4c0.5-0.5,0.6-1.2,0.7-1.8c0.1,0,0.2-0.1,0.3-0.1c0.5,0.8,1.2,0.4,1.8,0.5c0.9,0.1,1.8-0.4,2.6,0.4
		C14.8,43.9,14.6,44.1,14.8,44.5z"/>
	<path class="st3" d="M15,43.6c-0.8-0.8-1.7-0.2-2.6-0.4c-0.6-0.1-1.3,0.3-1.8-0.5c0-0.1,0-0.2,0.1-0.3c1.3,0,2.6,0,4,0
		c0.7,0,1.1,0.1,0.8,1c0,0,0,0,0,0C15.3,43.5,15.1,43.5,15,43.6z"/>
	<path class="st4" d="M10.3,42.8c-0.1,0.7-0.1,1.4-0.7,1.8C9.6,43.9,9.6,43.2,10.3,42.8z"/>
	<path class="st4" d="M8.8,47c0.1,0.4-0.1,0.6-0.4,0.8C8.3,47.4,8.4,47.1,8.8,47z"/>
	<path class="st4" d="M15,43.6c0.2-0.1,0.3-0.1,0.5-0.2c0.2,0.6-0.1,0.9-0.6,1.1C14.6,44.1,14.8,43.9,15,43.6z"/>
	<text transform="matrix(1 0 0 1 70.2977 42.3141)"><tspan x="0" y="0" class="st12 st13">BHARAT ENERGY</tspan><tspan x="17.5" y="10.8" class="st14 st15">Making India Self Reliant</tspan></text>
</g>
</svg>
